<svg width="129" height="48" viewBox="0 0 584.1 216.6" xmlns="http://www.w3.org/2000/svg" xmlns:xlink="http://www.w3.org/1999/xlink"><defs><path id="a" d="m84.2 18c.6 0 1.1-.5 1.1-1.1s-.5-1.1-1.1-1.1-1.1.5-1.1 1.1.5 1.1 1.1 1.1"/><path id="b" d="m87.7 13.5c.6 0 1.1-.5 1.1-1.1s-.5-1.1-1.1-1.1-1.1.5-1.1 1.1c-.1.6.4 1.1 1.1 1.1"/></defs><g fill="#231815"><path d="m93.9 18.7c-.7 1.3-1.2 2-1.1 2.9.1 1 1.1 1.7 1.6 2.6.4-1.1 1.2-2 1.1-2.9-.2-.7-1.4-1.9-1.6-2.6m16.8 0c.7 1.3 1.2 2 1.1 2.9-.1 1-1.1 1.7-1.6 2.6-.4-1.1-1.2-2-1.1-2.9.1-.7 1.4-1.9 1.6-2.6"/><use xlink:href="#a"/><path d="m85 19.6a1.11 1.11 0 0 0 -1.1-1.1 1.11 1.11 0 0 0 -1.1 1.1 1.11 1.11 0 0 0 1.1 1.1c.6.1 1.1-.4 1.1-1.1m.5 2.8a1.11 1.11 0 0 0 -1.1-1.1 1.11 1.11 0 0 0 -1.1 1.1 1.11 1.11 0 0 0 1.1 1.1 1.11 1.11 0 0 0 1.1-1.1"/><use x="6.3" xlink:href="#a" y="-5.4"/><use xlink:href="#b"/><use x="-2.2" xlink:href="#b" y="1.9"/><use x="5.8" xlink:href="#b" y="-.6"/><use x="8.6" xlink:href="#b" y=".2"/><use x="14.7" xlink:href="#a" y="-3.1"/><path d="m119.2 16.9a1.11 1.11 0 0 0 1.1 1.1 1.11 1.11 0 0 0 1.1-1.1 1.11 1.11 0 0 0 -1.1-1.1c-.6-.1-1.1.4-1.1 1.1m1.5 1.6a1.11 1.11 0 0 0 -1.1 1.1 1.11 1.11 0 0 0 1.1 1.1 1.11 1.11 0 0 0 1.1-1.1 1.11 1.11 0 0 0 -1.1-1.1m-.6 2.7a1.11 1.11 0 0 0 -1.1 1.1 1.11 1.11 0 0 0 1.1 1.1 1.11 1.11 0 0 0 1.1-1.1c.1-.5-.5-1.1-1.1-1.1"/><use x="29.8" xlink:href="#a" y="-5.4"/><use x="32.6" xlink:href="#a" y="-4.5"/><use x="31.4" xlink:href="#b" y="1.9"/><use x="23.4" xlink:href="#b" y="-.6"/><use x="24" xlink:href="#a" y="-4.3"/><path d="m104.5 13.8a1.11 1.11 0 0 0 1.1 1.1 1.11 1.11 0 0 0 1.1-1.1 1.11 1.11 0 0 0 -1.1-1.1 1.11 1.11 0 0 0 -1.1 1.1m-4.2 6.1h1.3v-4.9c-.4-.1-.9-.2-1.3-.4zm3.9-5.2c-.4.2-.8.3-1.3.4v4.9h1.3zm-2.7-5.4v-2.9c-1.4.3-2.5 1.4-2.8 2.9z"/><path d="m103 9.3h2.8c-.2-1.4-1.3-2.6-2.8-2.9zm-4.2 1.4c.4 1.6 1.8 2.8 3.5 2.8s3.1-1.2 3.5-2.8zm5.4-4.7c-.8-.6-1.4-1.6-1.5-2.5.9.2 2 .8 2.6 1.6v-3.9c-.6.8-1.7 1.5-2.6 1.6.1-.9.7-1.8 1.5-2.8h-3.8c.8 1 1.4 1.9 1.5 2.8-.9-.2-2-.8-2.6-1.6v3.9c.6-.8 1.7-1.5 2.6-1.6-.1 1-.7 1.9-1.5 2.5zm.1 81.4c-.8 0-1.4-.6-1.4-1.4s.6-1.4 1.4-1.4 1.4.6 1.4 1.4-.6 1.4-1.4 1.4m-6.7-2.1a1.54 1.54 0 0 1 -1.5-1.5 1.54 1.54 0 0 1 1.5-1.5 1.54 1.54 0 0 1 1.5 1.5c0 .9-.6 1.5-1.5 1.5m-2.3-6.7-.4-.3c-.7-.5-1.3-.5-1.9 0-.3.3-.6.6-.8.9l-.4.4.3.2c.7.6.8 1.2.6 1.6-.1.1-.2.2-.4.3-.4.1-.9 0-1.4-.4l-.3-.2-.2.3c0 .1-.1.1-.1.2-.1.1-.1.2-.2.3-.3.5-.5 1-.5 1.3v.3c.1.4.4.6.7.7l.2.1 1.1.7c-.6.4-1.3.4-1.9.1-1-.5-1.6-1.6-1.6-2.1 0-.8.4-1.9 1.1-3l.1-.2-.1-.2a4.67 4.67 0 0 1 -.5-1c.4.1.7.1 1.1.2h.2l.1-.1c.4-.5 1.9-2 3.3-2 .6 0 1.3.3 1.8.9.4.4.6.9.7 1.4-.2-.1-.4-.3-.6-.4m13.1 5.3c-3.6-.9-7.8-2.4-11.8-4.2.1-.8-.2-1.7-.8-2.4s-1.4-1.1-2.3-1.1c-.4 0-.7.1-1.1.2-.6-.5-1.1-1.1-1.6-1.7-1.5-1.8-2.7-3.8-3.5-6.1-.5-1.3-.8-2.7-1-4-.2 1.2-1.5 2.7-3.7 2.7 0-.2 0-.8-.2-.9-.6.6-1.5 1.4-3.5.6.3 1.6.7 3.1 1.3 4.6 1.2 3.2 2.9 6.1 5.1 8.6.7.8 1.5 1.6 2.3 2.3v.5c0 .8.8 2.2 2 2.7 1 .5 2 .3 2.9-.3 1.7.9 3.9 1.8 6.3 2.5 2.7.7 5.3 1.2 7.3 1.2 1.7 0 4-.8 6.3-2.2.9-.6 1.8-1.2 2.4-1.8l.2-.2c-1.8.1-4.4-.4-6.6-1"/><path d="m107.4 98.4c-.3-.5-.6-.8-1-.8-1.5 0-.9 3.8-2.6 3.8-.8 0-1.2-.5-1.2-1s.4-.7.4-1.1-.3-.6-.7-.6-.7.2-.7.6.4.6.4 1.1-.4 1-1.2 1c-1.7 0-1.2-3.8-2.6-3.8-.3 0-.7.3-1 .8-.3-.5-.5-1.1-.5-1.5 0-.7.5-1.7 1.7-1.7 1.9 0 1.5 2.7 2.4 2.7a.68.68 0 0 0 .7-.7c0-.8-1.4-1.5-1.4-2.6s1-2 2.1-2.9c1.1.9 2.1 1.8 2.1 2.9s-1.4 1.8-1.4 2.6a.68.68 0 0 0 .7.7c.9 0 .5-2.7 2.4-2.7 1.1 0 1.7 1 1.7 1.7.1.4 0 1-.3 1.5m-5.1 5.4c-.5 0-.9-.4-.9-.9s.4-.9.9-.9 1 .4 1 .9c-.1.5-.5.9-1 .9m3.9-9.3c-.3 0-.5 0-.7.1v-4.3c-1.9-.1-4.1-.4-6.2-.9v5.2c-.2-.1-.5-.1-.8-.1-1.5 0-2.4 1.3-2.4 2.4s.6 2.1 1.2 2.8c.3-.7.5-1.2.9-1.2.7 0 .4 3.7 2.6 3.8-.1.2-.1.4-.1.6 0 .9.8 1.7 1.7 1.7s1.7-.8 1.7-1.7c0-.2 0-.4-.1-.6 2.2-.1 1.8-3.8 2.6-3.8.4 0 .6.5.9 1.2.6-.6 1.2-1.7 1.2-2.8-.1-1.2-1-2.4-2.5-2.4m50.1 5.1c-.1-.2-.3-.3-.6-.3-5 1.5-11.2-2.7-17.2-6.7-5.1-3.4-9.8-6.5-13.9-6.5-1.5 0-2.9.3-4 .9-1.4.8-2.5 2-3.2 3.7s-1.4 2.8-2 3.7c-.7 1.1-1.2 1.9-1.2 2.9 0 .8.3 1.5 1 2.2.6.6 1.4 1.1 2.6 1.8.3.1.5.3.8.4 1 .5 1.6.8 1.7 1.4-2 .9-4.5 1.6-7.4 2.1-3.3.6-6.9.9-10.7.9s-7.4-.3-10.7-.9c-2.9-.5-5.5-1.2-7.5-2.1.1-.8.7-1.2 1.8-1.7.3-.1.5-.2.8-.4 1-.5 1.9-1 2.6-1.6s1-1.3 1-2.1c0-1-.5-1.8-1.2-2.9-.6-.9-1.3-2.1-2-3.7-.7-1.7-1.8-2.9-3.2-3.7-1.2-.6-2.5-1-4-1-4.1 0-8.9 3.2-13.9 6.5-6 4-12.2 8.1-17.2 6.7-.2-.1-.5.1-.6.3s0 .5.2.6c1.5.7 2.9 1.7 4.2 2.7 1.8 1.4 3.5 2.7 5.4 2.7 1.8 0 3.7-.6 6-1.8 2-1.1 4.1-2.5 6.1-3.9 4-2.7 8-5.5 11.9-5.8-.4.4-.8.8-1.2 1.1-1.1 1-2.1 1.9-2.1 3.7 0 1.4.5 2.4 1.2 3.8.2.4.4.9.6 1.4.4 1 .6 1.7.9 2.8.1.5.2 1 .4 1.6.2.9.7 2.6 3.5 4.1 3.3 1.7 9 2.5 16.9 2.5s13.6-.9 16.9-2.5c2.8-1.4 3.3-3.2 3.5-4.1.2-.6.3-1.1.4-1.6.3-1.1.4-1.8.9-2.8.3-.7.6-1.3.9-1.8.6-1.1 1.1-2 1.1-3.3 0-1.8-1-2.7-2.2-3.8-.4-.3-.8-.7-1.2-1.1 3.9.3 8 3.1 11.9 5.8 2 1.4 4.1 2.8 6.1 3.9 2.3 1.2 4.2 1.8 6 1.8 1.9 0 3.6-1.3 5.4-2.7 1.3-1 2.6-2.1 4.2-2.7.3 0 .4-.3.3-.5m-53.3-38.8v-18.8a14.2 14.2 0 0 1 5.7 1.5c1.9 1 3.7 2.3 5.2 4.1s2.7 3.8 3.5 6.1 1.2 4.7 1.3 7.1zm-.7-26.7c-5.3 0-9 1.6-11.1 3-1.2-.7-1.8-1.5-1.8-2.3 0-3 8.5-3.3 12.9-3.3 4.3 0 12.9.3 12.9 3.3 0 .8-.5 1.6-1.8 2.3-2.1-1.4-5.8-3-11.1-3m-.3 26.7h-16c0-2.5.5-4.9 1.3-7.1.8-2.3 2-4.3 3.5-6.1s3.2-3.1 5.2-4.1c1.9-.9 3.9-1.4 6-1.5zm24.3-1.2c-.6-.4-1.5-1.3-1.9-2.2l-3.5-6.8c-.3-.5-.5-1-.5-1.5s.3-.9.5-1.3a10.63 10.63 0 0 0 .9-1.1c.2-.2.3-.4.4-.6-.9-1.6-1.8-2.7-3-4.1-1.5-1.6-3.1-3-4.9-4.2 1-.6 1.9-1.5 1.9-3 0-.9-.4-1.6-1-2.1 1-3.2 2.8-7.1 4.3-8.8l-3.2-1.4c.8 1.3.9 2.8.7 3.6-.8-.6-1.6-1.4-1.8-2.4a16.13 16.13 0 0 1 -1.2 3.5c.9-.4 1.7-.6 2.6-.2-.5.7-1.9 1.9-4 1.4-1.1-.3-2.3-.9-2.2-1.8 0-.5.4-1.2 1.1-1.1s.7 1.1.5 1.6c.9-.5 1.9-3.2.4-3.6-1.1-.3-2.2 1.2-2.5 2.4-.2-1.4-.8-2.8-1.9-2.7-1.5.1-1 2.8-.5 3.5.1-1 .6-1.5 1.1-1.4.4 0 .9.3.8 1.2s-1.3 1.4-2.8 1.4c-1.4 0-3.7-.4-4-3 .9.2 2.3.8 2.9 1.7a16.2 16.2 0 0 1 0-4.4c-.7 1-2 1.6-2.8 1.7.2-1.1 1.2-2.3 2.3-3h-5.8c1.1.7 2.1 1.9 2.3 3-.9-.1-2.1-.7-2.8-1.7.2 1.6.2 2.8 0 4.4.6-.9 1.9-1.5 2.8-1.7-.2 2.6-2.6 3-4 3s-2.7-.5-2.8-1.4.4-1.2.8-1.2 1 .5 1 1.4c.5-.7 1-3.4-.5-3.5-1.1-.1-1.7 1.3-2 2.7-.4-1.2-1.4-2.7-2.5-2.4-1.4.4-.5 3.1.4 3.6-.2-.5-.2-1.5.5-1.6s1.1.6 1.1 1.1c.1.9-1.1 1.5-2.2 1.8-2.1.5-3.5-.6-4-1.3 1-.4 1.7-.2 2.7.2-.5-.9-1-2.5-1.2-3.5-.2 1.1-1 1.9-1.8 2.5-.2-.9-.1-2.4.7-3.6l-3.2 1.4c1.5 1.7 3.3 5.6 4.3 8.8-.6.5-1 1.2-1 2.1 0 1.5 1 2.4 1.9 3a24.13 24.13 0 0 0 -4.8 4.2 26.51 26.51 0 0 0 -5.1 8.6c.4.5 2.4 2.6 2.8 3.1.8 1 1.3 2 1.3 2.8 0 1.5.4 2 1.1 3 .2.3.6 1.4.6 2.1h16v17.4c-.6 0-1.3.2-1.8.9 1.8.7 3.6 1.4 5.4 2 .2-1.1.4-1.8 1-2.5l-3.6-.3v-17.4h16c-.1 2.4-.5 4.7-1.3 6.9-.8 2.3-2 4.3-3.5 6.1s-3.2 3.1-5.2 4.1c-.3.2-.3.4-.6.5-.3.3-.5.8-.8 1.4-.2.5-.3.9-.4 1.6l1.8.5c5.5 1.4 6.8 1 7.1.7 1.2-.9 2.4-2 3.4-3.2 2.2-2.5 3.9-5.4 5.1-8.6 1.3-3.3 1.9-6.9 1.9-10.5.2-1 .2-1.2.2-1.8m-14.6-10a.76.76 0 0 0 -.2.4c.1.2.2.3.5.3-.2.1-.3.4-.4.7.3 0 .5 0 .7-.2-.1.3 0 .4.2.5.1.1.3.1.4 0a15.99 15.99 0 0 1 2.3 6.3c-.1-.1-.3-.2-.6-.2 0 .3.1.6.3.7h-3.9c0-.2-.1-.5-.3-.5-.2-.1-.3 0-.5.2a1.08 1.08 0 0 0 -.3-.7 1.08 1.08 0 0 0 -.3.7c-.2-.2-.4-.2-.5-.2a.55.55 0 0 0 -.3.5h-3.2c.1-.2.2-.4.2-.7-.3 0-.5.1-.7.2v-5.4c.3 0 .5-.1.5-.3.1-.2 0-.4-.2-.5a1.08 1.08 0 0 0 .7-.3 1.08 1.08 0 0 0 -.7-.3c.2-.2.2-.4.2-.5a.55.55 0 0 0 -.5-.3v-4.6c.1.1.3.2.6.2 0-.3 0-.5-.2-.7 1 .3 2 .8 3 1.5 1.2 1.1 2.3 2.1 3.2 3.2m4.4 8.1c.3.2.2.6-.2.6-.3-2.8-1.4-5.6-3-7.9.3-.1.6-.4.7-.8-.5-.1-.8.2-1 .4-.1-.2-.2-.3-.3-.4-1-1.3-2.1-2.3-3.4-3.2-1.2-.8-2.5-1.4-3.8-1.7 0-.3.4-.4.6-.1 0-.5-.4-.7-.6-.6-.1 0-.3.2-.3.4-.2-.2-.4-.3-.7-.4 0 .3.1.6.2.7-.2 0-.3.1-.4.2-.1.2 0 .7.5.7-.2-.2-.1-.6.2-.6v6.1c-.3-.1-.7-.1-1 .3.3.3.7.4 1 .3v6.6c-.3 0-.4-.4-.2-.6-.5 0-.7.4-.6.7.1.2.2.3.5.2-.2.2-.3.4-.3.7.3 0 .5-.1.7-.3 0 .3.1.4.3.5s.7-.1.7-.6c-.2.3-.6.2-.6-.1h4.6c-.1.3 0 .7.3 1 .3-.3.4-.7.3-1h5.1c0 .3-.4.4-.6.2 0 .5.5.7.7.6s.3-.2.2-.5c.2.1.4.2.7.2 0-.3-.1-.5-.3-.7.3 0 .4-.1.5-.3.2-.2 0-.6-.5-.6"/><path d="m113.4 56c.2-.1.4-.2.4-.4-.2.1-.4 0-.4-.1.2-.1.3 0 .2-.3-.2-.3-.3-.3-.5-.1s-1.4-.1-1.4-1a.78.78 0 0 0 .4.4s.1 0 .1.1h.2c.1 0 .2.1.4.1h.1c.3-.1.5-.2.5-.5 0-.5-.4-.7-1-1.2-.2-.2-.4-.3-.5-.5-.2-.4-.1-.7-.5-1.4 0-.2-.1-.3-.2-.6-.2.4-.4 1.3.3 2 .5.6 1.6 1.1 1.6 1.6 0 .1-.1.2-.3.2h-.2-.1c-.1 0-.2 0-.2-.1-.1-.1-.2-.2-.4-.3-.5-.4-.9-1.1-1.1-1.4-.5-.7-.3-1.3-.2-1.8.4-.5-.2-1.5-.6-1.8 0 0 .1-.2 0-.5-.1.1-.2 0-.3 0-.1-.2-.1-.2-.3-.2s-.2-.2-.2-.2c-.1.1-.2.2-.3.2-.2 0-.3 0-.3.1-.1.1-.2.1-.4.1s-.2.1-.2.3c0 .1 0 .2.2.3h.1l.2.2.1-.2c.1-.1.4-.1.4.1 0 .1.1.2-.1.2h-.4c-.1 0-.1.2-.1.3s.1.2.4.1.7-.1.7.1c0 .6-.6.5-.8 1.2a.78.78 0 0 1 -.4-.4c-.1-.2-.2-.4-.5-.6-.1-.1-.3-.3-.5-.4s-.2-.2-.2-.5c0-.2.1-.4.1-.6 0 0 0-.1-.1-.2 0-.1-.2-.2-.3-.2 0 0 .1.1.1.2l-.1.1s-.1.1 0 .2v.1c-.1-.1-.1-.3-.2-.4h-.1c0-.1-.2-.3-.3-.1 0 0 .1 0 .1.1v.1c0 .1.1.2.3.2v.1c-.3-.1-.4 0-.4.1v.1c-.1.1-.1.2.1.3v-.2c0-.1.1.1.1.1h.1.1.1c-.2.2-.1.3.1.4-.1.2-.4.1-.4-.2-.2.4.1.6.4.5v.4s0-.1.1-.1c0 .1 0 .2.2.2v-.1c0 .1.1.2.1.2.1.3.4.9 1.1 1.2-.3.2-.6.5-.8.7s-.5.4-.6.3l-.2-.2c-.1-.1-.2-.1-.2-.1h-.1c-.1 0-.3 0-.3.1h.2v.1c0 .1.1.2.4.1s-.1.1-.2 0c-.2 0-.2-.2-.3 0 0 0 0 .1-.1.1s-.3.3-.1.4c0 0 0-.1.1-.2l.1.1c.1.1.2.2.4-.1 0 .2-.2.4 0 .4h.1c0 .2.3.2.4.2-.1 0-.2-.1-.2-.2h.1c.1-.1 0-.3 0-.4 0 .1.1.2.3.1.1-.1.1-.1.1-.2.2-.1.4-.2.6-.1 0-.1.1-.3.4-.4.2-.1.4 0 .4.1a.76.76 0 0 1 .2-.4c0 1 1.3 1 1.6 1.5-.4-.2-.8-.3-1.1-.2s-.9.4-1 .7.3.8.6 1c-.4.1-.5 0-.9 0-.3 0-.3-.5-.7-.4 0 0-.1 0-.1.1-.1 0-.3.2-.3.3 0 0 .1-.1.2-.1v.1c0 .1 0 .1.1.1h.1c0 .1-.4-.1-.4.3 0 0 0 .1.1.1 0 .1.1.2.3.2l-.1-.1h.1v-.1.1.1c0 .1.2.3.4.1-.1 0-.2 0-.2-.1h.1v-.1h.1.1c0 .1.1.2.3.1.1 0 .1-.1.1-.1.1 0 .1.1.2.1 0-.1.1-.3.4-.1l.2-.2s.3.1.4 0c.2-.2.1-.2.1-.3-.1-.3-.2-.3-.3-.5-.1-.5.6-.8 1-.7.1.3.5 1.1 1.2 1.4.4.2.6-.3.8-.3l.1.1v.5c0 .1-.3 0-.5 0-.1 0-.2.1-.2.1-.1 0-.3.1-.3.3.1 0 .1-.1.3-.1v.1c0 .2.2.3.4.1-.1.1-.3.3-.1.3h.1c0 .1.1.2.2.3v-.2h.1c.1 0 .1-.2.2-.3 0 .1-.1.3.1.3h.1c0 .1.2.2.3.1 0 0-.1-.1-.2-.1l.1-.1c.1-.3-.2-.3-.2-.4s.3-.1.3-.3c.1-.1.3-.2.3-.3 0 .7-.1.6-.1.6zm-14.6 8.7h-.2c-.2 0-.6.1-.6.4a.47.47 0 0 0 .5.5h.2v.2c-.1.5-.2 1.3-.3 2.2l-2.4-3.4c1.1-.4 2-.9 2.5-.9.3 0 .4.2.3 1m-.9 5.9-3.8-5.4c.4-.1.8-.2 1.2-.4l2.8 4c0 .7-.1 1.3-.2 1.8m-.4 2.5-5.3-7.6h.5c.3 0 .5 0 .8-.1l4.3 6.1zm-6-7.6 5.8 8.4c-3.1-1.3-6.2-4.1-5.8-8.4m8.7-.7h-.3v-.3c0-.9-.5-1.6-1.5-1.6-.9 0-2.6 1.2-5.1 1.2-1 0-2.3-.5-3-1l-.3.7v-.1a.65.65 0 0 0 -.6-.6.65.65 0 0 0 -.6.6.65.65 0 0 0 .6.6c.2 0 .4-.1.5-.2l-.3.7c.1 0 .2.1.3.1-.4 3.7 2.4 8.4 7.2 9.8.7-.2 1.4-.1 1.4.7 0 .5-.2.7-.7.7-.3 0-.5-.2-.5-.4 0-.3.6-.1.6-.4.1-.3-.1-.4-.4-.4s-.8.2-.8.8c0 .7.5 1.1 1.1 1.1.5 0 1.7-.3 1.5-1.6.3 0 .5 0 .6-.3l.1-.7h-.3l.2-8.4h.2c.3 0 .6-.1.6-.4 0-.4-.2-.6-.5-.6m-4.3-17.8c0-.1.1-.1.1-.1.1 0 .1 0 .1-.1s0-.1-.1-.2c.1 0 .1 0 .1-.1h-.1s0-.1.1-.1h.1l.3.1s.1 0 .1.1v.1s0-.1-.1-.1v.1c-.1 0-.1-.1-.2 0v.2.1c0 .1-.1.2-.2.1-.2.1-.2 0-.2-.1m.4-.8c0 .1-.2.2-.2.1-.1-.1 0-.1-.1-.3.1.1.2.2.3.2m.2.2a2.27 2.27 0 0 0 .4.1c-.2 0-.1.1-.2.1-.2 0-.2-.1-.2-.2m2.7 1.4c1.1 0 1.7-.4 1.7-.7 0-1.3-3.1-.5-3.1-1.3 0-.1.1-.2.2-.3 1.6-.1 1.6-1.2 2.7-1.4-1.4-.2-1.5.9-2.1.9.3-.1.4-.5.4-.7-.3.4-.9.4-1.2.8 0 .1-.1.2-.1.2a.55.55 0 0 0 -.3.5c0 1.2 3.2.4 3.2 1.2 0 .3-.5.5-1.4.5-.7 0-1.1-.5-2.3-.2 0-.2.4-.6.2-.8.1 0 .2-.1.2-.2-.1-.1-.2-.1-.2-.1 0-.1 0-.1-.1-.2 0 0 0-.1-.1-.2 0 0-.1-.1-.3-.2-.1-.1-.2-.1-.3-.1h-.2c-.1 0-.2 0-.2.1-.1-.1-.1-.1-.2-.1 0 .1-.1.2 0 .3-.1 0-.2.3-.3.3 0 .1.1.1.1.1-.1.2-.1.4-.2.4l.1.1c-.1.3-.1.6-.2.7-.1-.1-.2-.1-.3-.2-.2-.1-.2-.2-.1-.4 0-.2.1-.3.1-.4v-.1c0-.1-.2-.2-.2-.2s.1.1.1.2l-.1.1s-.1.1 0 .2v.1c0-.1-.1-.3-.2-.3h-.1c0-.1-.1-.2-.3-.1h.1s0 .1-.1.1c0 .1.1.2.2.2v.1c-.2-.1-.3 0-.4.1v.1c-.1 0-.1.2 0 .2 0 0 0-.1.1-.1v.1h.1.1.1c-.2.1-.2.3 0 .3-.1.3-.4.2-.4 0-.3.3.1.5.4.4 0 .1 0 .1.1.1 0 0 0-.1.1-.1 0 .1 0 .2.1.2v-.1s.1.2.3.4l-.7.2h-.6c-.2.1-.6.3-.8.1 0-.1 0-.1-.1-.2 0-.1-.1-.1-.1-.1h-.1c-.1-.1-.2-.1-.3 0 .1 0 .1 0 .2.1v.1c0 .1 0 .1.3.2s-.1 0-.2 0c-.1-.1-.1-.2-.3-.1h-.1c-.1 0-.3.1-.2.3 0 0 .1-.1.2-.1v.1c0 .1.1.3.4.1-.1.1-.3.2-.1.3h.1c0 .2.1.3.2.3 0 0-.1-.1-.1-.2h.1c.1-.1.1-.2.1-.3 0 .1 0 .2.2.2s.2-.2.2-.2c.1 0 .1.1.1.2l.1-.1c0 .1 0 .2-.1.3.1 0 .2-.1.3-.3 0 0 0 .1.1.1h.3v.2s0-.1.1-.1c0 0 0 .2.1.3 0-.4.3-.3.5-.4s-.1.1-.1.1c.1 0 .3-.1.3-.2 0 0 .1-.1.2-.1s.2 0 .3-.1c0 0 .1.2 0 .2.3 0 .6-.3.7-.3.6-.1-.4-.6.9-.5.1 0 .3-.1.4-.1-.1.2-.1.6.1.6.1 0 .2.1.3.1-.1 0-.2 0-.3.1-.3.2-.3-.4-.6-.3 0 0-.1 0-.1.1-.1 0-.3.1-.3.3 0 0 .1-.1.2-.1v.1s0 .1.1.1h.1c0 .1-.4-.1-.3.3 0 0 0 .1.1.1 0 .1.1.2.2.1l-.1-.1h.1v-.1.1.1c0 .1.2.2.3.1 0 0-.1 0-.2-.1h.1v-.1h.1.1c0 .1.1.1.2.1.2-.1 0-.2.2-.3h.1.4c0-.1 0-.4-.1-.5-.1 0 0-.2-.1-.3.2.1.4.1.6.1.4 0 0-.1.2-.2s.5-.1.5-.1c.1 0 .1 0 .1.1v.4c0 .1-.2 0-.4 0-.1 0-.1 0-.1.1-.1 0-.2.1-.2.2 0 0 .1-.1.2-.1 0 .2.2.2.3.1-.1.1-.3.2-.1.3h.1c0 .1.1.2.1.2v-.2h.1c.1 0 .1-.2.2-.2 0 .1-.1.2 0 .3h.1c0 .1.1.1.3.1 0 0-.1 0-.1-.1l.1-.1c.1-.2-.1-.2-.1-.3s.2 0 .2-.3c0 0 0-.1-.1-.1.1 0 .1 0 .2-.1-.2 0-.1-.1-.1-.2.1 0 .1-.1.1-.3-.1.1-.3.2-.3 0 0 0 0-.1-.2-.1.2-.1 0-.3-.5-.4-.1.1-.1.1 0 0m-6.1 4.1c0-.1.1-.1.1-.1.1 0 .1 0 .1-.1s0-.1-.1-.2c.1 0 .1-.1.1-.1h-.1s0-.1.1-.1h.1l.3.2s.1 0 .1.1v.1s0-.1-.1-.1-.1.1 0 .1c-.1 0-.2-.1-.2 0v.2.2s-.1.2-.3.1c-.1-.1-.1-.2-.1-.3m.4-.9c-.1.1-.2.2-.3.1s0-.1-.1-.3zm.3.1s.3.1.4.2c-.2 0-.1.1-.3.1-.1 0-.1-.1-.1-.3m7 1c0-.3-.4-.6-1.5-.6s-3.6.4-3.6-.2c0-.3.5-.3 1.1-.2 0 0 .1.1.2.1 1.4.4 3.1-.3 4-.1-1-.8-1.9 0-3-.2.6 0 .9-.2.9-.4-.5.3-1.4-.2-2 .2 0 0-.1 0-.1.1-.8 0-1.4 0-1.4.5 0 1.1 3 .5 3.9.5s1.1.1 1.1.3c0 .3-.9.3-1.5.3-.8 0-3.3-.4-4.7-.1.1-.2.4-.5.2-.7.1-.1.2-.2.2-.3-.1-.1-.2-.1-.3-.1 0-.1 0-.1-.1-.2 0 0 0-.2-.1-.2s-.2-.1-.3-.2c-.2-.1-.3-.1-.3-.1h-.2c-.1 0-.2 0-.2.1-.1-.1-.2-.1-.3-.1-.1.1-.1.2 0 .4-.1 0-.3.4-.4.3 0 .1.1.1.1.1-.1.2-.2.4-.3.4.1.1.1.2.2.2v.4l-.2-.1h-.1-.1.1-.1c-.1-.1-.3-.3-.5-.4s-.2-.2-.2-.5c0-.2.1-.4.1-.6v-.2c0-.1-.2-.2-.3-.2 0 0 .1.1.1.2l-.1.1c0 .1-.1.1 0 .2v.1a.76.76 0 0 0 -.2-.4h-.1c0-.1-.1-.3-.3-.1 0 0 .1 0 .1.1v.1c0 .1.1.2.2.2v.1c-.2-.1-.4 0-.4.1v.1c-.1.1-.1.2 0 .3 0 0 0-.1.1-.2s.1.1.1.1h.1.1.1c-.2.2-.2.3.1.4 0 .3-.5.3-.4-.1-.2.4.1.6.5.5 0 .1 0 .1.1.1 0 0 0-.1.1-.1 0 .1 0 .2.1.2v-.1c.1 0 .2.2.4.4.2.1.4.3.5.2 0 .2.2.5.1.5h-.8c-.2.1-.7.3-.9.1-.1-.1 0-.1-.1-.3 0-.1-.1-.1-.2-.1h-.1c-.1-.1-.3-.1-.4 0 .1 0 .1 0 .2.1 0 0 0 .1-.1.1 0 .1 0 .2.3.3s-.1 0-.2 0c-.1-.1-.1-.2-.3-.2 0 0-.1 0-.1.1-.1 0-.4.2-.3.3 0 0 .1-.1.2-.1v.1c0 .2.1.3.4.1-.1.1-.3.3-.1.4l.1.1c0 .2.2.3.3.3 0-.1-.1-.1-.1-.3h.1c.2-.1.1-.3.2-.3 0 .1 0 .3.2.2.2 0 .3-.2.3-.3.1 0 .1.1.1.2l.1-.1c0 .1 0 .2-.1.3.1 0 .3-.1.3-.3l.1.1h.4v.2l.1-.1c.1 0 0 .2.1.3 0-.5.3-.3.6-.5 0 .1-.1.1-.1.2.3.1.9-.4 1-.7h.3c1 .1.3-.9 1.9-.6a.76.76 0 0 0 .4-.2c-.1.2-.1.6.1.7a.76.76 0 0 1 .4.2c-.1 0-.3 0-.3.1-.3.2-.3-.5-.7-.4 0 0-.1 0-.1.1-.1 0-.3.2-.3.3 0 0 .1-.1.2-.1v.1s0 .1.1.1h.1c0 .1-.4-.1-.4.3 0 0 0 .1.1.1 0 .1.1.2.3.2l-.1-.1h.1v-.1.1.1c0 .1.2.3.4.1-.1 0-.2 0-.2-.1h.1v-.1h.1.1c0 .1.1.2.3.1s0-.3.2-.3h.1.5c.1-.1 0-.4-.2-.5-.1-.1 0-.2-.1-.4.2.1.4.2.7.2.5 0 .6-.1.9-.2.3-.2.5-.1.6-.1s.1 0 .1.1c-.1.3 0 .3 0 .4s-.3 0-.4 0-.2 0-.2.1c-.1 0-.3.1-.3.3 0 0 .1-.1.2-.1v.1c0 .2.2.2.3.1-.1.1-.3.2-.1.3 0 0 .1 0 .1.1s.1.2.2.2v-.2h.1c.1 0 .1-.2.2-.3 0 .1-.1.3 0 .3h.1c0 .1.2.2.3.1l-.1-.1.1-.1c.1-.3-.2-.3-.2-.4s.3 0 .3-.3c0-.1 0-.1-.1-.2.1 0 .2 0 .2-.1-.2 0-.1-.2-.2-.3.1 0 .1-.1.1-.3-.1.1-.3.2-.3 0 0 0 0-.1-.2-.1-.3 0-.6 0-1.2-.1 1.5.1 2.6-.1 2.6-.5"/><path d="m91.8 56.8c0-.1.1-.1.1-.1.1 0 .1 0 .1-.1s0-.1-.1-.2c.1 0 .1-.1.1-.1h-.1s0-.1.1-.1h.1l.3.2s.1 0 .1.1v.1s0-.1-.1-.1v.1c-.1 0-.2-.1-.2 0v.2.2c0 .1-.1.2-.2.1-.2-.1-.2-.2-.2-.3m.4-.8c-.1.1-.2.2-.3.1s0-.1-.1-.3zm.3.1s.3.1.4.2c-.2 0-.1.1-.3.1-.1 0-.1-.2-.1-.3m7.8.9c0-.3-.4-.5-1.4-.5-1.1 0-4.3.4-4.3-.2 0-.4 1.1-.2 1.9-.2 0 .1.1.1.2.2 1.4.4 2.8-.5 3.8-.2-.8-.7-1.8.1-2.8-.1.6 0 1.2-.1 1.3-.3-.5.3-1.8-.2-2.4.1 0 0-.1 0-.1.1-1 0-2.2-.1-2.2.5 0 1.1 3.7.4 4.6.4s1.1.1 1.1.3c0 .3-.9.3-1.4.3-.8 0-4.3-.4-5.7 0 .1-.2.4-.6.3-.8.1-.1.2-.2.2-.3-.1-.1-.2-.1-.3-.1 0-.1 0-.1-.1-.2 0 0 0-.2-.1-.2s-.2-.1-.3-.2c-.2-.1-.3-.1-.3-.1h-.2c-.1 0-.2 0-.2.1-.1-.1-.1-.1-.2-.1-.1.1-.1.2 0 .4-.1 0-.3.3-.4.3 0 .1.1.1.1.1-.1.2-.1.4-.3.4 0 .1.1.1.1.1v.3h-.1-.2-.2c-.2 0-.3-.3-.6-.4-.2-.1-.2-.2-.2-.4s.1-.4.1-.5c0 0 0-.1-.1-.2 0-.1-.2-.2-.3-.2 0 0 .1.1.1.2l-.1.1s-.1.1 0 .2v.1c0-.1-.1-.3-.2-.3h-.1c0-.1-.2-.2-.3-.1 0 0 .1 0 .1.1v.1c0 .1.1.2.2.2v.1c-.2-.1-.3 0-.3.1v.1c-.1.1-.1.2 0 .3 0 0 0-.1.1-.1s.1.1.1.1h.1.1.1c-.2.2-.1.3.1.3 0 .3-.4.2-.4-.1-.2.3.2.6.5.4 0 .1 0 .1.1.1 0 0 0-.1.1-.1 0 .1 0 .2.1.2v-.1c.1 0 .3.4.7.6.1 0 .2 0 .2-.1 0 0 0 .1.1.1 0 .2.1.4.1.4h-.9c-.2.1-.7.3-.8.1 0-.1 0-.1-.1-.2 0-.1-.1-.1-.2-.1h-.1c-.1-.1-.3-.1-.3 0 .1 0 .1 0 .2.1 0 0 0 .1-.1.1 0 .1 0 .2.3.3s-.1 0-.2 0c-.1-.1-.1-.2-.3-.1h-.1c-.1 0-.3.2-.3.3 0 0 .1-.1.2-.1v.1c0 .2.1.3.4.1-.1.1-.3.3-.1.4l.1.1c0 .2.2.3.3.3 0 0-.1-.1-.1-.3h.1c.2-.1.1-.2.2-.3 0 .1 0 .3.2.2.2 0 .3-.2.2-.3.1 0 .1.1.1.2l.1-.1c0 .1 0 .2-.1.3.1 0 .3-.1.3-.3l.1.1h.4v.2s0-.1.1-.1c0 0 0 .2.1.3 0-.5.6-.2.9-.4 0 .1-.1.1-.1.2a.76.76 0 0 0 .4-.2l.5-.2v-.1h.2c.3 0 .3-.2.4-.2 1.7.2.7-.7 2.8-.5.1 0 .1 0 .2-.1-.1.2-.1.5.1.6a.76.76 0 0 1 .4.2c-.1 0-.3 0-.3.1-.3.2-.3-.5-.7-.3 0 0-.1 0-.1.1-.1 0-.3.2-.3.3 0 0 .1-.1.2-.1v.1c0 .1 0 .1.1.1h.1c0 .1-.4-.1-.3.3 0 0 0 .1.1.1 0 .1.1.2.3.2l-.1-.1h.1v.1.1c0 .1.2.3.4.1 0 0-.2 0-.2-.1h.1v-.1h.1.1c0 .1.1.2.3.1s0-.3.2-.3h.1.5c0-.1 0-.4-.2-.5-.1-.1 0-.2-.1-.4.2.1.4.2.7.2.5 0 .6-.1.8-.2s.5-.1.6-.1.1 0 .1.1c-.1.3 0 .3 0 .4s-.3 0-.4 0-.2.1-.2.1c-.1 0-.3.1-.3.3 0 0 .1-.1.2-.1 0 .2.2.2.3.1-.1.1-.3.2-.1.3h.1c0 .1.1.2.2.2v-.2h.1c.1 0 .1-.2.2-.3 0 .1-.1.3 0 .3h.1c0 .1.2.2.3.1 0 0-.1 0-.1-.1l.1-.1c.1-.3-.1-.3-.1-.4s.3 0 .3-.3c0 0 0-.1-.1-.2.1 0 .1 0 .2-.1-.2 0-.1-.1-.2-.3.1 0 .1-.1.1-.3-.1.1-.3.2-.3 0 0 0 0-.1-.2-.1-.3 0-.5 0-1.2-.1 1-.4 2.1-.5 2.1-.9m6.8 6.9c0-.1.1-.1.1-.1.1 0 .1 0 .1-.1s0-.1-.1-.2c.1 0 .1-.1.1-.1h-.1s0-.1.1-.1h.1l.3.2s.1 0 .1.1v.1s0-.1-.1-.1-.1 0 0 .1c-.1 0-.2-.1-.2 0v.2.2c0 .1-.1.2-.2.1-.3-.1-.3-.2-.2-.3m.4-.8c-.1.1-.2.2-.3.1s0-.1-.1-.3c.1 0 .3.2.4.2m.2.1s.3.1.4.2c-.2 0-.1.1-.3.1-.1 0-.1-.2-.1-.3m7.7 2c.1-.1.1-.2.1-.3-.1.1-.3.2-.3 0 0 0 0-.1-.2-.1-.3 0-.6 0-1.2-.1.6 0 1.7-.1 1.7-.5 0-.3-.4-.5-1.4-.5-1.1 0-4.3.4-4.3-.2 0-.4 1.1-.2 1.9-.2 0 .1.1.1.2.1 1.4.4 2.9-.6 3.8-.4-1.1-.4-1.7.3-2.8.1.6 0 1.2-.1 1.3-.3-.5.3-1.8-.2-2.4.1 0 0-.1 0-.1.1-1 0-2.2-.1-2.2.5 0 1.1 3.7.4 4.6.4s1.1.1 1.1.3c0 .3-.9.3-1.4.3-.8 0-4.3-.5-5.7 0 .1-.2.4-.6.3-.8.1-.1.2-.2.2-.3-.1-.1-.2-.1-.3-.1 0-.1 0-.1-.1-.2 0 0 0-.2-.1-.2 0 0-.2-.1-.3-.2s-.3-.1-.3-.1h-.2c-.1 0-.2 0-.2.1-.1-.1-.2-.1-.3-.1-.1.1-.1.2 0 .4-.1 0-.3.3-.4.3 0 .1.1.1.1.1-.1.2-.1.4-.3.4.1.1.1.2.2.2v.3l-.2-.1h-.2-.2c-.2 0-.3-.3-.6-.5-.2-.1-.2-.2-.2-.4s.1-.3.1-.5c0 0 0-.1-.1-.2 0-.1-.2-.2-.3-.2 0 0 .1.1.1.2l-.1.1v.2.1c0-.1-.1-.3-.2-.3h-.1c0-.1-.1-.2-.3-.1 0 0 .1 0 .1.1v.1c0 .1.1.2.2.2v.1c-.2-.1-.3 0-.4.1v.1c-.1.1-.1.2.1.3 0 0 0-.1.1-.2h.1.1.1.1c-.2.2-.1.3.1.4 0 .3-.4.2-.4-.1-.2.3.2.6.5.4 0 .1 0 .1.1.1 0 0 0-.1.1-.1 0 .1 0 .2.1.2v-.1c.1 0 .3.4.7.7 0 0 .2-.1.3-.2 0 .1.1.2.1.2h.1c0 .2.2.4.2.4-.1 0-.5-.1-.6 0-.2.1-.7.3-.8.1 0-.1 0-.1-.1-.2 0-.1-.1-.1-.2-.1h-.1c-.1-.1-.3-.1-.3 0 .1 0 .1 0 .2.1v.1c0 .1 0 .2.3.3s-.1 0-.2 0c-.1-.1-.1-.2-.3-.1h-.1c-.1 0-.3.2-.3.3 0 0 .1-.1.2-.1v.1c0 .2.1.3.4.1-.1.1-.3.3-.1.4l.1.1c0 .2.2.3.3.3 0 0-.1-.1-.1-.3h.1c.2-.1.1-.3.2-.3 0 .1 0 .3.2.2.2 0 .3-.2.2-.3.1 0 .1.1.1.2l.1-.1c0 .1 0 .2-.1.3.1 0 .3-.1.3-.3l.1.1h.4v.2s0-.1.1-.1 0 .2.1.3c0-.5.3-.3.6-.5 0 .1-.1.1-.1.2.1.1.5-.2.5-.4 0 0 .2-.1.3-.1.3 0 .3-.2.4-.2 1.7.2.7-.7 2.8-.5.1 0 .1-.1.2-.2-.1.2-.1.6.1.6.1 0 .3.1.4.1-.1 0-.2 0-.3.1-.3.2-.3-.5-.7-.4l-.1.1c-.1 0-.3.2-.3.3 0 0 .1-.1.2-.1v.1c0 .1 0 .1.1.1h.1c0 .1-.4-.1-.3.3 0 0 0 .1.1.1 0 .1.1.2.3.1l-.1-.1h.1v-.1.1.1c0 .1.2.3.4.1-.1 0-.2 0-.2-.1h.1v-.1h.1.1c0 .1.1.1.3.1.2-.1 0-.3.2-.3h.1.5c0-.1 0-.4-.2-.5-.1-.1 0-.2-.1-.4.2.1.4.2.7.2.5 0 .6-.1.9-.2.3-.2.5-.1.6-.1s.1 0 .1.1c-.1.3 0 .3-.1.4 0 .1-.3 0-.4 0s-.1.1-.1.1c-.1 0-.3.1-.3.3 0 0 .1-.1.2-.1v.1c0 .2.2.2.3.1-.1.1-.3.2-.1.3h.1c0 .1 0 .2.1.2v-.2h.1c.1 0 .1-.2.2-.3 0 .1-.1.3 0 .3h.1c0 .1.1.2.3.1 0 0-.1 0-.1-.1l.1-.1c.1-.3-.1-.3-.1-.4s.3 0 .3-.3c0 0 0-.1-.1-.2.1 0 .1 0 .2-.1.1.2.2.1.2 0"/><path d="m107.7 68.2c-.1 0-.2-.2-.1-.3 0 0 .3.1.4.2-.2 0-.2.1-.3.1m-.2.2s0-.1-.1-.1 0 0 0 .1c-.1 0-.1-.1-.2 0v.2.2c0 .1-.1.2-.2.1s-.1-.2-.1-.2c0-.1.1-.1.1-.1.1 0 .1 0 .1-.1s0-.1-.1-.2c.1 0 .1-.1.1-.1h-.1s0-.1.1-.1h.1l.3.1s.1 0 .1.1c-.1 0 0 .1-.1.1m-.2-.6c-.1.1-.2.2-.3.1s0-.1-.1-.3zm3.3.1c0 .1.1.1.2.2 1.3.4 2.8-.6 3.6-.4-1-.4-1.7.3-2.7.1.6 0 1.2-.1 1.2-.3-.4.3-1.7-.2-2.2.1 0 0-.1 0-.1.1-.7 0-1.3 0-1.3.5 0 1 2.7.4 3.6.4.8 0 .7.1.7.3s-1 .3-1.4.3c-.7 0-2.9-.4-4.3-.1.1-.2.4-.5.2-.7.1 0 .2-.1.2-.3-.1-.1-.2-.1-.2-.1 0-.1 0-.1-.1-.2 0 0 0-.1-.1-.2 0 0-.2-.1-.3-.2-.2-.1-.2-.1-.3-.1h-.2c-.1 0-.2 0-.2.1-.1-.1-.1-.1-.2-.1-.1.1-.1.2 0 .4-.1 0-.2.3-.4.3 0 .1.1.1.1.1-.1.2-.1.4-.3.4 0 .1.1.1.1.1 0 .1-.1.3-.1.4h-.1-.1c-.2 0-.3 0-.5-.2-.2-.1-.2-.2-.2-.4s.1-.3.1-.5v-.2c0-.1-.2-.2-.3-.2 0 0 .1.1.1.2l-.1.1c0 .1-.1.1 0 .2v.1c0-.1-.1-.3-.2-.3h-.1c0-.1-.1-.2-.3-.1 0 0 .1 0 .1.1v.1c0 .1.1.2.2.2v.1c-.2-.1-.3 0-.3.1v.1c-.1.1-.1.2 0 .3v-.1l.1.1h.1.1l.1.1c-.2.1-.1.3.1.3v.1c0 .3-.4.2-.4-.1-.2.3.2.6.4.4 0 .1 0 .1.1.1 0 0 0-.1.1-.1 0 .1 0 .2.1.2v-.1c.1 0 0-.1.4.1 0 .1.1.1.1.1h.3v.5h-.6c-.2.1-.7.3-.8.1 0-.1 0-.1-.1-.2 0-.1-.1-.1-.2-.1h.3c-.1-.1-.2-.1-.3 0 .1 0 .1 0 .2.1v.1c0 .1 0 .2.3.3s-.1 0-.2 0c-.1-.1-.1-.2-.3-.1h-.1c-.1 0-.3.2-.2.3 0 0 .1-.1.2-.1v.1c0 .2.1.3.4.1-.1.1-.3.3-.1.4h.1c0 .2.2.3.3.3 0 0-.1-.1-.1-.3h.1c.1-.1.1-.2.2-.3 0 .1 0 .2.2.2s.2-.2.2-.2c.1 0 .1.1.1.2l.1-.1c0 .1 0 .2-.1.3.1 0 .2-.1.3-.3l.1.1h.3v.2s0-.1.1-.1c0 0 0 .2.1.3 0-.4.4-.3.7-.5 0 .1-.1.1-.1.1.3.2.6-.2.7-.4l.1-.1s0 .1-.1.1c.3 0 .3-.2.4-.2.9.1.2-.7 1.6-.5a.76.76 0 0 0 .4-.2c-.1.2-.1.6.1.6.1 0 .3.1.3.1-.1 0-.2 0-.3.1-.3.2-.3-.5-.6-.3 0 0-.1 0-.1.1-.1 0-.3.2-.3.3 0 0 .1-.1.2-.1v.1s0 .1.1.1h.1c0 .1-.4-.1-.3.3 0 0 0 .1.1.1 0 .1.1.2.2.1l-.1-.1h.1v.1.1c0 .1.2.2.3.1-.1 0-.2 0-.2-.1h.1v-.1h.1.1c0 .1.1.1.2.1.2-.1 0-.3.2-.3h.1.5c0-.1 0-.4-.2-.5-.1 0 0-.2-.1-.3.2.1.4.2.6.2.5 0 .7-.1.9-.2.3-.1.5-.1.6-.1s.1 0 .1.1c-.1.2 0 .3-.1.4s-.2 0-.4 0c-.1 0-.2.1-.2.1-.1 0-.3.1-.3.3 0 0 .1-.1.2-.1v.1c0 .2.1.2.3.1-.1.1-.3.2-.2.3h.1c0 .1 0 .2.1.2 0-.1 0-.1.1-.2h.1c.1 0 .1-.2.2-.3-.1.1-.1.3 0 .3h.1c0 .1.1.2.3.1l-.1-.1.1-.1c.1-.3-.1-.3-.1-.4s.3 0 .3-.3c0 0 0-.1-.1-.2.1 0 .1 0 .2-.1-.2 0-.1-.1-.1-.2.1 0 .1-.1.1-.3-.1.1-.3.2-.3 0 0 0 0-.1-.2-.1-.3 0-.8 0-1.3-.1.6 0 1.8-.1 1.8-.5 0-.3-.1-.5-1.1-.5s-3.3.4-3.3-.2c.4-.8.9-.8 1.4-.7m-4.1 5.4c0-.1.1-.1.1-.1.1 0 .1 0 .1-.1s0-.1-.1-.1c.1 0 .1-.1.1-.1h-.1s0-.1.1-.1h.1l.3.1s.1 0 .1.1v.1s0-.1-.1-.1v.1c-.1 0-.1-.1-.2 0v.2.2c0 .1-.1.2-.2.1-.2-.1-.2-.2-.2-.3m.4-.8c-.1.1-.2.2-.2.1-.1-.1 0-.1-.1-.3 0 .1.2.2.3.2m.2.2a2.27 2.27 0 0 0 .4.1c-.2 0-.1.1-.2.1-.2 0-.2-.1-.2-.2m2.4-.2c0 .1.1.1.2.2 1.3.4 2.8-.6 3.6-.4-1-.4-1.7.3-2.7.1.6 0 1.2-.1 1.2-.3-.4.3-1.7-.2-2.2.1l-.1.1c-.4.1-.7.3-.7.6 0 .9 3.3.2 3.3.5 0 .2-.7.4-1.5.4-.7 0-1.8-.4-3.3-.1.1-.2.4-.6.3-.8.1 0 .2-.1.2-.2-.1-.1-.2-.1-.2-.1 0-.1 0-.1-.1-.2 0 0 0-.1-.1-.2 0 0-.1-.1-.3-.2-.1-.1-.2-.1-.3-.1h-.2c-.1 0-.2 0-.2.1-.1-.1-.1-.1-.2-.1-.1.1-.1.2 0 .3-.1 0-.2.3-.3.3 0 .1.1.1.1.1-.1.2-.1.4-.2.4 0 .1.1.1.1.1-.1.3-.1.6-.1.8-.2-.2-.5-.7-.7-.8s-.2-.2-.2-.4.1-.3.1-.5v-.2c0-.1-.2-.2-.3-.2 0 0 .1.1.1.2l-.1.1s-.1.1 0 .2v.1c0-.1-.1-.3-.2-.3h-.1c0-.1-.1-.2-.3-.1 0 0 .1 0 .1.1v.1c0 .1.1.2.2.2v.1c-.2-.1-.3 0-.3.1v.1c-.1.1-.1.2 0 .3v-.1l.1.1h.1.1c-.1.1-.1.3.1.3 0 .3-.4.2-.4-.1-.2.3.2.6.4.4s0 .1.1.1c0 0 0-.1.1-.1 0 .1 0 .2.1.2v-.1a.71.71 0 0 0 .4.6c.1.2.3.4.5.3.1.2.2.3.1.3h-.6c-.1.1-.3.1-.4.1s-.3 0-.3-.1 0-.1-.1-.2c0-.1-.1-.1-.1-.1h-.1c-.1-.1-.2-.1-.3 0 .1 0 .1 0 .2.1v.1c0 .1 0 .2.3.2s-.1 0-.2 0c-.1-.1-.1-.2-.3-.1h-.1c-.1 0-.3.1-.2.3l.1-.1v.1c0 .1.1.3.4.1-.1.1-.3.2-.1.3h.1c0 .2.2.3.2.3s-.1-.1-.1-.2h.1c.1-.1.1-.2.1-.3 0 .1 0 .2.2.2s.2-.2.2-.2c.1 0 .1.1.1.2l.1-.1c0 .1 0 .2-.1.3.1 0 .2-.1.3-.3l.1.1h.3v.2s0-.1.1-.1c0 0 0 .2.1.3 0-.4.3-.3.5-.4s-.1.1-.1.1c.1 0 .4-.1.4-.3 0-.1.2-.2.2-.7h.1c.4 0 .5-.3.9-.3-.1.1-.1.3-.1.5s.3.4.3.5c-.1 0-.2 0-.3.1-.3.2-.3-.4-.6-.3 0 0-.1 0-.1.1-.1 0-.3.1-.3.3 0 0 .1-.1.2-.1v.1c0 .1 0 .1.1.1h.1c0 .1-.4-.1-.3.3v.1c0 .1.1.2.2.1l-.1-.1h.1v-.1.1.1c0 .1.1.2.3.1 0 0-.2 0-.2-.1h.1v-.1h.1.1c0 .1.1.1.2.1.2-.1 0-.2.2-.3h.1c.2 0 .3.1.3 0s0-.4-.2-.5c-.1-.1.1-.7-.3-1 .2.1 1 .2 1.1 0a4.71 4.71 0 0 0 .5.2v.1c-.2.1-.2.2-.3.2-.1-.1-.1-.2-.2-.2h-.2c-.1 0-.3 0-.3.1h.2v.1c-.1 0-.3 0-.3.1v.1c-.1.1-.1.2 0 .2 0-.1 0-.1.1-.1v.1c.1.1.2-.1.3-.1-.1 0-.2.1-.2.2v.1c0 .1 0 .2.1.3v-.2h.1c.2-.1.1-.3.2-.3.1-.1.2.1.4 0 0 0 .1-.1 0-.2s.1.1.2.1c-.1-.1 0-.2.1-.3.1 0 .1 0 .2-.1-.1 0-.4-.1-.2-.2s.3-.2.2-.3c-.2-.2-.5-.3-.5-.5h.3c1.1 0 1.8-.3 1.8-.7 0-.8-3.4.1-3.4-.5 1.2.2 1.4 0 1.6-.1m-54.5-58.6c0-.4-.4-.8-.8-.8s-.8.4-.8.8.4.8.8.8c.5 0 .8-.4.8-.8m-.3-2.2c0-.4-.4-.8-.8-.8s-.8.4-.8.8.4.8.8.8c.5 0 .8-.3.8-.8m.5-1c.5 0 .8-.4.8-.8s-.4-.8-.8-.8-.8.4-.8.8c0 .5.4.8.8.8m2.2-.1c.5 0 .8-.4.8-.8s-.4-.8-.8-.8-.8.4-.8.8.3.8.8.8m9.2-1.5c.3.3.8.3 1.2 0 .3-.3.3-.8 0-1.1s-.8-.3-1.2 0c-.3.2-.3.8 0 1.1m-.1-1.8c.3-.3.3-.8 0-1.2-.3-.3-.8-.3-1.2 0-.3.3-.3.8 0 1.2s.8.4 1.2 0m-2.2-.3c.3-.3.3-.8 0-1.2-.3-.3-.8-.3-1.2 0-.3.3-.3.8 0 1.2.4.3.9.3 1.2 0m-1.9 1.4c.3-.3.3-.8 0-1.2-.3-.3-.8-.3-1.2 0-.3.3-.3.8 0 1.2.4.3.9.3 1.2 0"/><path d="m57.2 7.2.7 1.4.8-1h.1c.1.5.1 1.3.1 1.8 0 .6.5 1 1 1 .6 0 1-.5 1-1 0-.4-.2-.7-.6-.9-.4-.3-.9-.7-1.2-1.1v-.1l1.4.1-.5-1.5-1 .9h-.1l-.1-1.5-1.4.5 1 1.1s0 .1-.1.1zm9.5 2.6c.3.5.4.7.5 1.1-.2-.1-.5-.4-.8-.8l.2 1.9c.2-.3.4-.6.7-.7-.1 1.2-.6 1.7-1 1.8-.5.1-.9-.2-1-.6-.1-.6.4-.9.9-.4.1-1.1-.8-1.1-1.2-.6.5-1.1.3-1.8-.7-2.4-.6 1-.4 1.7.4 2.5-.8-.4-1.4.3-.8 1.1.1-.7.8-.6.9 0 .1.5-.4 1.1-1.2 1.4-1.2.4-1.5-.4-1.8-1 .3-.2.9-.1 1.5.3l-.6-1.9c-.3.7-.7.9-1.1 1.1 0-.5.4-1.6.4-1.6l-2.2.9s1 .5 1.4.9c-.5.2-.9.3-1.6 0l.9 1.7c.2-.8.6-1.2.9-1.3.2.7.5 1.5-.6 2-.8.4-1.5.3-1.8-.2s0-1.1.7-.7c-.1-1.1-1-1.1-1.3-.3 0-1.1-.3-1.8-1.4-2.1-.3 1.1.1 1.8 1.2 2.2-.6-.1-1.3.6-.4 1.3 0-.7.6-.8.9-.3.2.3.2.8-.3 1.1-.4.2-1.1.2-2-.6.3-.1.6-.1 1 0l-1.2-1.5c.1.5 0 .9-.1 1.1-.3-.3-.3-.5-.5-1.1l-.9.8c.9.5 1.9 1.4 3.1 3 1.3-.8 3.6-1.9 5-2.5s3.8-1.4 5.3-1.7c-.3-2-.2-3.3.1-4.3zm2.6 10.8c-1.1.9-2.7.1-3.3-1.1 1.6-.6 3.4-1.4 4.6-2.1-1.2 1.7-.4 2.5-1.3 3.2m-.3 11.8c-1.5.6-2.6-.7-2.9-1.5-.3-.9-.5-1.6-.2-1.9.6-.6.8-1.1.4-1.9-.4-.9-1.4-.5-2.4-.2.5-.9.5-1.5-.1-1.4-.8.1-.8 1.4-1.2 1.2-.4-.1-.2-.9-.2-1.3 0-.5.4-.7.9-1l4.3-1.6c.5-.2.9-.3 1.3.1.3.3 1 .6.7 1-.2.4-1.1-.5-1.7 0-.5.4-.1.8.9 1.1-.9.5-1.9.9-1.6 1.8.3.8.7 1 1.6 1 .5 0 .8.7 1.2 1.5.5.9.6 2.5-1 3.1m-8.1-8.5c-1.1.1-1.1-1-3.1-1.5 1.4-.3 3.2-1 4.8-1.6.3 1.3-.2 2.9-1.7 3.1m23.7 37.8c.3-.9-1.3-1.9-1.5-3.1-.2-1.3 0-2.4-1.5-4.1-1.4-1.6-6.3-6.9-7.8-8.5.4 0 1.2-.2 2.1.6.5.5 1.6 1.5 2.5 2.4 1.3-3.3 2.9-5.8 5.2-8.3.3-.3.6-.7.9-1-.8.3-2.1.5-2.9 1-.1-1.4.1-2.6-.9-3.5.4-2 0-4.4-4.4-7.4 2.3.6 3.7 2.6 5.4 1-1.6 0-1.6-3.5-7.3-6.3 2.2 0 3.9 3.5 6.4 1.5-2.4-.3-3.2-4.5-7.4-5.8 1.5.2 3 .9 4.3-.8-1.5.4-2.4-1-4-1.1.6-1.8.5-3-.2-4.4-1.1.1-2.3.4-3.1 1.1-.1-1-1.2-1.1-2.1-1 0 .4.3 1.1-.2 1.2-.8.1-3.3.8-5.3 1.6s-4.2 2.2-4.9 2.6c-.4.3-.7-.4-1-.7-.7.6-1.4 1.4-.9 2.1-1.1.1-2.3.4-3.3 1.2 0 1.3 1.1 2.5 2.6 3.2-2.6 2.6-.3 5.1-2.6 7.3 3.3.1 2.7-4.4 4.4-5.1-.2 3.2-2 3.8-2 7.2 0 1.8 1.1 3.8.1 5.1 2.7-.8 2-6.8 3.7-8.6.3 1 .1 2-.2 3.1-1 2.8.1 6.7-1.4 7.9 2.8-.3 3.1-4.8 5.4-6.4-2 4-4 12.6-6.9 16.9-4.8 6.4-7.6 14.3-11.9 14.3-1.9 0-3.4-1.2-3.4-3.6 0-7.3 12.5-12.3 12.5-20.1 0-3.5-2.8-4.8-4.6-4.8-1.2 0-2.6.6-3.8 1.6-.5-.2-1-.3-1.5-.3-4.4 0-3.3 8-7.1 7.9 1.5.9 4.2-.8 5.7-3-.6 5.2-8.1 3.8-7.5 10 1-4.9 12.9-4.1 12.9-11.5 0-.8-.4-1.5-1-2.1.9-.6 1.7-.8 2.5-.8 1.4 0 2.7 1.1 2.7 3.1 0 6.5-12.5 12-12.5 20 0 1.4.4 2.5 1 3.4-.9.4-1.8.2-2.5-.7-.1 2.1 2.9 3.4 4.7 2.3.4.1.8.2 1.3.3-.6 1.5-2.5 2-3.5 1.9 3.1 2.4 8.4-.8 8.1-3.5 2.4-2 4-5.3 5.7-7.5l-.3 1.5c-1.8 3.2-3.5 6.2-3.9 10.4-.4 3.6-2.2 6.8-4.7 6.8-.6 0-1.5-.7-1.9-.4-.8.7 0 1.4 0 2 0 1-2 2-2 5.2 0 1.4.8 3.1.5 4 .8-.4 1.9-1.8 2.3-3.5.9 4.2-1.8 4 .1 7.7.2-1.2 1.5-1.7 2.2-1.2s.4.9-.2 1.4-1.1 3.3 1.5 3.1c-.5-.3-.5-1 .7-1.3 1.7-.3 2.2.4 4.1.4 1.1 0 1.5-1.5 2.4-1.5s.9.7.6 1.2c1.5-.4 1.7-1.2 1.7-2s-.7-1.3-.2-1.6 2.2 0 1.5 1.4c.9-.2 1.3-.8 1.3-1.8s-1.2-1.7-2.4-1.5c-.2-.7-1.2-1-2.1-1-2 0-1.7 1.6-3.1 1.6-2.2 0-4.4-2.9-4.4-7.8 0-2.6 2.8-3.3 4.8-4.2s5.5-3 7.6-6.6c1.7-2.8 1.7-5.8 1.5-9.4 2.8 1.6 3.2 3.9 3.2 5.6 0 2.2-1.1 3.1-2 3.5-.8.4-1 .2-1.1.7-.1.6.3.9.6 1.1 1 .5.8 1.5 1.1 2.6s1.2 2.7 2.8 3.9c.2-.7.1-1.7 0-3.1 2.2 1.1.4 5.4 4.6 5.4-.8-.4-.6-1.6-.1-1.7.4-.2 1 .3 1.8 1.4s.6 1 2.6 1 1.1-.7 2.1-.7c1.1 0 1 1.2.4 2.1 1.8-.5 2.3-1.9 1.7-3.3 1.6-.8 2.4.4 2.6 1.2 1.5-1.5 0-3.4-1.2-3.5 0-.6-.5-1.2-1.1-1.2s-1.3-.1-2 0c-.7 0-1.1 1.1-2 1.1-2.6 0-7.9-4.8-7.9-6.9s5-3.3 5-6.5c0-4.2-4.1-5.6-7.6-8.3 1.2-1.4 4.9-1.7 6.9-.7.2-1.2 1-.9 1.3-2.9.7 1.8 0 3.3.7 4.1.6-.9 2.1-.7 2-2.9.5 1.4-.6 3.5.5 4.4.2-1.1.9-1.3 1.3-1.3s.8.3.8 1c0 1.7-2.1.9-2.1 2.8 0 .8 1 1.1 1 1.6s-.8 1.3-1.8.6c.3.7 1 1.4 1.9 1.4s1.9-.7 2.3-1.7c.5 1.2.1 2.5-.8 2.7.9.5 3.1 0 2.8-2.8 1.2.2 1.9 1 1.1 2.5 1-.2 1.9-.7 1.9-1.8.6-.8-.3-1 .1-2.1m80.7 20.1a2.65 2.65 0 0 1 2.6-2.6 2.65 2.65 0 0 1 2.6 2.6 2.65 2.65 0 0 1 -2.6 2.6c-1.4.1-2.6-1.1-2.6-2.6m-.9 0c0 1.9 1.6 3.5 3.5 3.5s3.5-1.6 3.5-3.5-1.6-3.5-3.5-3.5-3.5 1.6-3.5 3.5m-11.5 6.4c-1-.2-1.7-.9-1.6-1.7.1-.4.3-.6.5-.7.4-.3 1-.4 1.6-.3.9.2 1.6.8 1.6 1.5v.2c-.2.7-1.1 1.2-2.1 1m-1.6-3.1c-.5.3-.8.8-.9 1.3-.1.6.1 1.2.5 1.8.4.5 1.1.8 1.8 1 .7.1 1.4 0 2-.3a1.92 1.92 0 0 0 1.1-1.5c.2-1.2-.8-2.4-2.3-2.7-.8-.2-1.6-.1-2.2.4m-19.6-47.4c0-.5.3-1 .7-1.3s.9-.5 1.3-.4c.2 0 .5.1.7.4.2.2.2.5.2.7-.1.4-.3.9-.7 1.2-.7.5-1.6.6-2 .1-.1-.3-.2-.5-.2-.7m.2-2c-1.1.9-1.4 2.3-.7 3.2s2.2.9 3.3.1c.6-.5 1-1.1 1.1-1.8.1-.5-.1-1-.4-1.4s-.7-.6-1.3-.7c-.7-.1-1.4.1-2 .6m16.6 47.5c-.4 0-.6-.2-.8-.4-.3-.4-.5-.9-.5-1.5s.2-1.1.6-1.5c.2-.2.4-.4.8-.4.7 0 1.3.9 1.3 1.9 0 .6-.2 1.1-.6 1.5-.1.2-.4.4-.8.4m-1.3-4c-.5.5-.8 1.3-.9 2.1v.1c0 .8.3 1.6.8 2.1.4.4.9.6 1.4.6s1-.2 1.4-.6c.5-.5.8-1.3.9-2.1 0-.7-.2-1.4-.6-1.9-.4-.6-1-.9-1.6-.9-.5 0-1 .2-1.4.6m-16.6-25c-.9-.4-1.4-1.3-1.1-2 .2-.3.4-.5.7-.6.5-.2 1-.1 1.6.1.5.3.9.7 1.1 1.1.1.2.1.6 0 .9-.2.3-.5.5-.7.6-.5.2-1 .2-1.6-.1m-.7-3.4c-.5.2-1 .6-1.2 1-.5 1.1.1 2.6 1.5 3.2.8.4 1.6.4 2.3.2.5-.2 1-.5 1.2-1s.2-1 .1-1.6c-.2-.7-.8-1.3-1.6-1.7-.8-.3-1.6-.4-2.3-.1"/><path d="m155.4 66.8c-.6.8-1.6 1.1-2.2.6s-.7-1.5-.1-2.3 1.6-1.1 2.2-.7c.7.6.7 1.6.1 2.4m-4.1 6.6c-.6.8-1.6 1.1-2.2.7-.6-.5-.7-1.5-.1-2.3s1.6-1.1 2.2-.7.7 1.4.1 2.3m-14.2-35.9 1.4-4.6 1.6.6c-.5.2-1 .6-1.5 1.1.4.2 1 .2 1.4-.1l-.6 1.6c-.1-.3-.6-.8-1-.9-.3 1.3.5 1.8 1.1 2.1 1 .5 1.6.6 1.9.1.3-.6-.3-1.3-1.2-1-.1-.8.4-1.3.9-1.3.4 0 .8.4.9.9-.1-1.4.6-2.4 1.8-2.8.5 1.3.1 2.2-.9 3.2.5-.2 1.1-.2 1.4.2.3.5.2 1.1-.5 1.5-.2-.9-1.2-.9-1.5-.4-.3.6.1 1.1 1 1.6 1 .6 1.9.2 2.4-.7-.3-.1-.9 0-1.5.3l1.1-2c.1.3.2.8.7 1.2.2-.4.4-1.2.1-1.9l2.3 1.3c-.8.1-1.3.7-1.6 1 .6.2 1.1.1 1.3 0l-1.2 1.9c0-.7-.2-1.2-.5-1.4-.5.9-.4 1.8.6 2.4.9.5 1.6.6 1.9.1s-.2-1.4-1.1-1.1c0-.8.5-1.3 1-1.2.4 0 .8.5.9 1.1.3-1.3.9-2.1 2.3-2.4.3 1.3-.3 2.3-1.5 3 .5-.2 1.1-.1 1.3.3.3.5.1 1.1-.6 1.5-.1-.9-1.1-1.1-1.4-.5-.3.5.1 1 1.1 1.6.6.4 1.4.8 2.3-.1-.3-.4-1-.4-1.3-.4l1.1-1.4c0 .5.3 1.1.6 1.3.2-.7.3-1.4.2-1.9l1.3 1.1-3.2 3.5zm17.2 19.6c0-.2.1-.6.3-.8.3-.2.6-.3.8-.3.5 0 1 .3 1.4.7s.6 1 .6 1.5c0 .2-.1.5-.3.8-.3.2-.6.3-.8.3-.5 0-1-.3-1.4-.7-.4-.5-.6-1.1-.6-1.5m6.3 29c.1-.5.4-1 .9-1.3s1.1-.5 1.6-.4c.2.1.5.2.7.5s.2.6.1.9c-.1.5-.4 1-.9 1.3-.9.6-1.9.5-2.3-.1-.2-.4-.1-.7-.1-.9m-30-43.7c0 .5-.2 1-.5 1.2-.1.1-.4.3-.7.3-.6 0-1.1-.7-1.1-1.5v-.1c0-.5.2-1 .5-1.2.1-.1.4-.3.7-.3s.5.2.6.3c.4.3.5.8.5 1.3m9.3-19.1c.5-.9 0-2.4 1.7-2.4.8 0 1.6.8 2.6 1.2-1.6.1-3.1.5-4.3 1.2m27 23.9c1.1 3.1 3.4 4.3 5.2 3.5-3.9-.5-.7-7.1-5.7-7.1-.3 0-.6 0-.8.1-.9-.9-1.8-1.3-3.3-1.3-2.1 0-5.8 2-5.8 6.3 0 9.1 10.6 9.9 10.6 17.9 0 2.4-1.8 3.8-3.8 3.8-1.8 0-3.2-2-4.7-5.1-.7-1.5-2.2-3.5-3.9-5.6.5.3 1 .5 1.6.5s1.1-.2 1.5-.5c.4-.4.6-.9.6-1.4v-.1c0-.7-.3-1.5-.9-2-.6-.6-1.3-1-2.1-1-.6 0-1.1.2-1.5.5-.4.4-.6.9-.6 1.4v.1c0 .3.1.6.2.9-2.3-3-4.4-5.9-4.4-7.5 0-1.4 1-2.6 2.2-4.1.1 0 .4.2.4.2l.3-.4c.4-.5 1.3-1.4 3.1-3.4l.1-.1.4-.5-1.1-.9c.3-.7.6-1.4.8-2.2.4 1.5 1.1 2.4 2.1 2.1-.7-1.5.7-3.5-.2-7.2.9 1.4 2.1 2.2 3 1.9-2.3-2.1.7-5-2.3-9.4 1 .3 1.7.1 2.1-.4-2.8-.4-1.5-3.9-6.4-5.2 1.2-.2 1.9-.9 1.7-1.6-1.3.9-2.4-1.7-6.6-1.7-.3-1.6-1.7-3.2-3.4-4 .3 1.2 0 2.3-.3 3.2l-13.8-13.5c-.4-.4-.6-.5-.7-.3-.1.1-.1.4.2.7l11.8 14.8c-.9.3-1.8.7-2.7 1-.6.2-1 .8-1 1.5-2.2 1.1-4.1 2.4-5.1 3.3-.7.7-1.3.8-.7 2.3.2.6-.5 2 1.2.9 1.1-.7 3.7-2.1 4-1.2.2.5-1.1 1.1-1.9 1.4-.9.3-1.8 1-1.7 1.3s.8 0 .9.3a.68.68 0 0 0 .7.7c.3 0 .8-.7 1.1-.5s-.1 1.9-.4 2.3c1.3-.2 2.2-1.4 2.2-2.4s.3-1.2.5-1.4c.2-.1.4 1.1.2 1.8.7-.1 1.4-1.1 1.3-2.8.4-.3.7-.5 1-.5.4 0 1.3 1.2 2.6 1.2 2.3 0 3.6-1.9 3.8-2.8.1-.7.1-1.4-.3-1.9.8.7 1.1 1.7 1.1 2.5 0 3.3-5.9 4.9-8.3 7.2-.1.1-.2.2-.3.2l-2.8-1.1-.2.6s0 .1-.2.5l-1.3 4-.1.4.2.1c-1.6 2.2-2.9 4.6-3.2 7.1-.7-.7-1.3-1.2-2-1.8.1-.2.1-.5.1-.8 0-.7-.2-1.4-.6-1.9-.3-.4-.8-.6-1.3-.6s-1 .1-1.3.5c-.1.1-.2.2-.2.3-.1-.1-.2-.2-.3-.2-.9-.7-2-1.5-2.7-2.3-.3-.3-.6-.5-1.2-.5h-1.2c-.4 0-.6.3-1.1.7-.2.2-.9.7-1.6 1.2.3.3.7.7 1 1.1.2.2.3.4.5.6.2-.1.4-.3.5-.4a1.93 1.93 0 0 1 1-.3c.4 0 .9.3 1.2.8.2.4 2.5 3.3 4.3 5.3-.2.1-.4.1-.6.2-.8.3-2.6.3-3.4.2s-.9-.3-1.5.6c-.2.3-.5.7-.7 1-.3.3-.5.7.1 1.6.8 1.4 2.8 5 3.5 6.6s1.5 1.9 2.7 2.4c1.3.5 3.5 1.8 3.7 2.1l.1-1.2c-.4-.4-1.6-.8-2.1-1s-.6-.4 0-.4c.5 0 2.1.6 3.2 1-.3-1.2-1.5-2.6-2.2-3.3-.9-.3-1.9-.3-2.2 0 0 .3-.1.6-.5.6s-.6-.3-.5-.6c.1-.4.7-.5.5-1.2-.1-.7-1-.8-1.5-.9-.8-1.1-1.7-2.8-2.1-3.5s-.2-1.1.1-1.3c.7-.5 2.1.3 4.9.5 1 .1 2.2.1 3.5.2.4 3.2 1.7 6.3 6.2 7.5 2.2.5 4.5 2.2 5.3 4.3-9-.2-10.5 3.4-10.5 6.7 0 3.8 3.2 3.6 3.2 6.4 0 2.5-7.6 3.5-9.9 3.8-1.9.3-3.1.7-4 1.7l-3.6 3.5a3.83 3.83 0 0 0 1.4.1l1.3-1.7c.4-.6.6-1 .9-1s.1.5-.2 1.1l-1.1 1.8c4.5.3 4.7-1.4 4.7-2 0-.7-1.1-1.1-.5-1.6.6-.4 1.2-.1 1.7.5s.7 1.1 1.9.6l10.9-4.6c1.1-.5.8-1 .1-1.5-.7-.6-.8-1.6-.8-2.6 0-2.9 1.8-3.9 4.9-3.8-.1.5-.1 1-.1 1.4 0 4.6 6.9 9.1 8.8 9.1.8 0 2-.6 2 2.1.1 2 .5 3.5.1 5.8s-1 2.7-2.5 3.7c-1.4 1-2.7 4.1-3.3 4.7.6.4 1.3.5 1.8-1 .4-1.3.9-2.1 1.5-2.4-.5 1.4-1 3.4-1.2 4 1.8.3 4.6-1.3 4.6-2.6 0-1.2-1-1.1-1-2 0-.4.4-.8 1-.8.7 0 1.3.6 1.3.8.8-.4 1.3-1.2 1.3-3 0-.7 0-1.5-.1-2.2 0 .1.1.2.2.3.3.5.9.8 1.6.9.6.1 1.3-.1 1.9-.5.7-.5 1.2-1.1 1.3-1.9 0-.1.1-.3.1-.4 0-.4-.1-.8-.3-1.1-.3-.4-.8-.7-1.3-.9-.7-.2-1.5 0-2.2.5-.6.4-1.1 1-1.3 1.7l-.3-5.8c.1-1.4.2-2-.3-2.2s-1 .6-1.7.6-2.7-1.9-2.7-3.9 2.1-4.5 2-7.3c0-.8.5-1.3.8-.5.4.9 1 2.2 1.9 3.2-.6 3.4 3.2 6.7 6.3 4.3-1.5.2-2.6-1.1-3.3-2.5.3 0 .5.1.8.1h.5c1.1 1.3 4.5 1.2 5.4-2.1-.6.7-1.8 1.2-2.7 1.1 1.3-1 2-2.7 2-4.4 0-8.7-10.5-9.7-10.5-17.5 0-2.9 2.6-4.8 4.3-4.8.7 0 1.2.2 1.6.5-.7.7-1 1.7-1 3 .3 6.2 10.4 5.9 10.6 8.9 1.8-4.2-5.8-2.8-6.1-8.8"/></g><path d="m38.5 142.1h7.7v50.6h30.2v6.2h-37.9zm48.8 0h-6.8v56.8h6.8zm25.5 63.5c-3.3 8-6 11-11.9 11-1.5 0-3.3-.3-4.8-.6v-6.2c1.2.3 2.7.9 3.9.9 2.7 0 4.5-1.5 5.7-3.9l2.7-7.1-16.4-41.4h7.7l12.2 33.9h.3l11.6-33.9h7.1zm65.1-5.7h-7.1l-8.6-32.7-8.3 32.7h-7.4l-13.5-41.3h7.7l9.2 33.9h.3l8.3-33.9h7.4l8.6 33.9 9.5-33.9h6.8zm34.2-42.2c13.1 0 20.2 9.5 20.2 21.7s-6.8 21.7-20.2 21.7c-13.1 0-20.2-9.5-20.2-21.7.3-12.2 7.2-21.7 20.2-21.7zm0 37.5c7.1 0 12.8-5.7 12.8-15.8s-5.7-15.8-12.8-15.8-12.8 5.7-12.8 15.8c.1 10.1 5.7 15.8 12.8 15.8zm63.7 4.7h-6.8v-5.7h-.3c-2.4 4.5-7.4 6.5-13.1 6.5-12.8 0-19-10.1-19-21.7s6.2-21.4 19-21.4c4.2 0 10.4 1.5 13.4 6.5h.3v-21.4h6.8v57.1h-.3zm-19.3-4.7c9.2 0 12.8-7.7 12.8-15.8 0-8.3-3.6-15.8-13.1-15.8-9.2 0-12.5 8-12.5 16.1 0 7.8 4.2 15.5 12.8 15.5zm27.7-36.6h6.5v8.6h.3c3.3-6.5 7.7-9.8 15.2-9.8v7.1c-11 0-14.9 6.2-14.9 16.7v18.4h-6.8v-41.1h-.3zm61.8 41.4c-1.2.6-2.7 1.2-4.8 1.2-3.6 0-5.7-1.8-5.7-6.5-3.9 4.5-8.9 6.5-14.6 6.5-7.4 0-13.7-3.3-13.7-11.6 0-9.5 6.8-11.3 14-12.8 7.4-1.5 14-.9 14-6 0-6-4.8-6.8-9.2-6.8-5.7 0-10.1 1.8-10.4 7.7h-6.8c.3-10.1 8.3-14 17.6-14 7.4 0 15.5 1.8 15.5 11.3v21.4c0 3.3 0 4.8 2.1 4.8.6 0 1.2 0 2.1-.3v5.1zm-11-21.2c-2.7 1.8-7.7 2.1-12.5 2.7-4.5.9-8.3 2.4-8.3 7.4 0 4.5 3.9 6 8 6 8.9 0 12.8-5.7 12.8-9.5zm50.6 8.1c-1.8 9.2-8.3 14-17.9 14-13.1 0-19.3-9.2-19.9-21.7 0-12.5 8-21.4 19.3-21.4 14.6 0 19 13.7 18.7 23.8h-30.8c-.3 7.1 3.9 13.7 12.8 13.7 5.7 0 9.5-2.7 10.7-8h7.1zm-6.5-11.6c-.3-6.5-5.4-11.6-11.9-11.6-7.1 0-11.3 5.4-11.9 11.6zm21.7-16.7h8.3v6h-8.3v25.9c0 3.3.9 3.6 5.1 3.6h3.3v6h-5.4c-7.1 0-9.8-1.5-9.8-8.9v-26.5h-7.1v-6h7.1v-12.5h6.8zm13.4-15.8h6.8v22h.3c2.4-5.1 8-7.1 13.1-7.1 11 0 14.3 6.2 14.3 15.2v27.4h-6.8v-28c0-5.1-3.3-8.3-8.3-8.3-8.3 0-12.2 5.7-12.2 13.1v23.5h-6.8v-57.7h-.4zm66.3 0h39.6v6.5h-31.8v18.2h29.7v6.2h-29.8v19.9h32.1v6.2h-39.9v-57zm46.5 0h10.4l18.2 48.2 18.2-48.2h10.4v57.2h-7.4v-47.6l-18 47.6h-6.5l-17.9-47.6h-.3v47.6h-7.1z"/><path d="m6.8 0h-6.8v199.9h6.8z" fill="#0c64af"/></svg>