<svg viewBox="0 0 762 437" fill="none" xmlns="http://www.w3.org/2000/svg">
<g clip-path="url(#clip0_635_2117)">
<path d="M0 0H26.28V4.62H5.1V18.48H22.32V23.1H5.1V42H0V0Z" fill="#0F19A0"/>
<path d="M42.9002 16.02C36.7802 16.02 35.0402 21.54 35.0402 28.68V42H30.2402V11.76H35.0402V17.88C36.3002 13.74 38.8202 11.76 43.2602 11.76H47.1002V16.02H42.9002Z" fill="#0F19A0"/>
<path d="M49.0801 26.88C49.0801 17.76 55.5001 11.28 64.4401 11.28C73.3801 11.28 79.8601 17.76 79.8601 26.88C79.8601 36 73.4401 42.48 64.4401 42.48C55.4401 42.48 49.0801 35.94 49.0801 26.88ZM74.9401 26.88C74.9401 20.28 70.6801 15.6 64.4401 15.6C58.2001 15.6 54.0001 20.28 54.0001 26.88C54.0001 33.48 58.2601 38.16 64.4401 38.16C70.6201 38.16 74.9401 33.48 74.9401 26.88Z" fill="#0F19A0"/>
<path d="M86.04 11.76H90.84V17.58C91.98 13.92 95.34 11.28 99.96 11.28C104.94 11.28 108.84 13.56 109.92 17.7C111.06 14.1 115.08 11.28 119.7 11.28C126.24 11.28 130.2 15.66 130.2 22.98V42H125.4V24.24C125.4 19.08 122.82 15.54 118.56 15.54C113.52 15.54 110.52 19.08 110.52 24.24V42H105.72V24.24C105.72 19.08 103.14 15.54 98.94 15.54C93.84 15.54 90.84 19.08 90.84 24.24V42H86.04V11.76Z" fill="#0F19A0"/>
<path d="M11.3139 372.015C4.30767 367.947 0 360.451 0 352.346V263.644C0 271.759 4.30767 279.255 11.3139 283.313L130.419 352.436V431.303C130.419 435.671 125.682 438.399 121.914 436.2L11.3139 372.015Z" fill="#0F19A0"/>
<path d="M11.3139 244.144C4.30767 248.212 0 255.708 0 263.814V352.516C0 344.4 4.30767 336.904 11.3139 332.846L130.419 263.724V175.022L11.3139 244.144Z" fill="#C82A87"/>
<path d="M249.525 155.432C256.532 159.5 260.839 166.996 260.839 175.102V263.804C260.839 255.688 256.532 248.192 249.525 244.134L130.42 175.012V96.1546C130.42 91.7869 135.157 89.0584 138.925 91.2572L249.525 155.442V155.432Z" fill="#0F19A0"/>
<path d="M249.525 283.313C256.532 279.246 260.839 271.75 260.839 263.644V174.942C260.839 183.058 256.532 190.554 249.525 194.611L130.42 263.734V352.436L249.525 283.313Z" fill="#C82A87"/>
<path d="M303 385.194H319.876C320.576 393.512 326.085 398.791 334.763 398.791C342.621 398.791 347.89 395.512 347.89 389.293C347.89 373.237 305.34 385.544 305.34 353.312C305.34 339.715 317.057 330.108 333.703 330.108C351.399 330.108 363.356 340.305 363.826 355.891H347.06C346.47 349.443 341.551 345.224 333.693 345.224C326.775 345.224 322.436 348.503 322.436 353.312C322.436 370.428 365.576 356.591 365.576 389.064C365.576 404.42 353.149 414.028 334.743 414.028C316.337 414.028 303.68 402.66 302.98 385.194" fill="#0F19A0"/>
<path d="M386.421 376.876H412.565C412.095 370.308 407.526 365.039 399.668 365.039C392.279 365.039 387.83 368.668 386.421 376.876ZM428.971 393.053C426.621 405.83 415.374 414.038 400.837 414.038C380.792 414.038 370.475 398.331 370.475 383.445C370.475 368.558 379.612 353.082 399.658 353.082C419.703 353.082 428.841 368.438 428.841 381.915C428.841 384.145 428.721 385.904 428.611 387.194H386.181C387.351 395.512 392.629 400.671 400.837 400.671C407.406 400.671 411.735 398.091 413.025 393.053H428.971Z" fill="#0F19A0"/>
<path d="M464.392 367.609C456.304 367.609 452.665 374.287 452.665 384.375V413.098H436.259V354.022H452.665V363.869C455.834 356.481 460.283 354.022 467.431 354.022H474.11V367.619H464.382L464.392 367.609Z" fill="#0F19A0"/>
<path d="M479.079 354.012H495.725L508.152 392.233L520.459 354.012H537.215L515.65 413.088H500.644L479.079 354.012Z" fill="#0F19A0"/>
<path d="M542.264 354.012H558.67V413.088H542.264V354.012ZM559.14 345.574H541.794V328.338H559.14V345.574Z" fill="#0F19A0"/>
<path d="M565.238 383.555C565.238 366.319 577.425 353.082 595.711 353.082C611.187 353.082 623.494 362.46 624.544 376.177H608.138C607.198 370.898 602.16 367.039 596.181 367.039C587.393 367.039 582.234 373.957 582.234 383.565C582.234 393.173 587.513 399.971 596.421 399.971C602.399 399.971 607.208 396.342 608.378 391.063H625.024C623.264 404.19 611.077 414.038 595.721 414.038C577.435 414.038 565.248 400.791 565.248 383.565" fill="#0F19A0"/>
<path d="M646.029 376.876H672.173C671.703 370.308 667.134 365.039 659.276 365.039C651.888 365.039 647.439 368.668 646.029 376.876ZM688.579 393.053C686.23 405.83 674.982 414.038 660.446 414.038C640.401 414.038 630.083 398.331 630.083 383.445C630.083 368.558 639.221 353.082 659.266 353.082C679.311 353.082 688.449 368.438 688.449 381.915C688.449 384.145 688.329 385.904 688.209 387.194H645.779C646.949 395.512 652.228 400.671 660.436 400.671C666.994 400.671 671.333 398.091 672.623 393.053H688.569H688.579Z" fill="#0F19A0"/>
<path d="M340.512 262.663C348.72 262.663 352.229 257.384 352.229 251.406C352.229 245.427 348.71 240.148 340.512 240.148H325.505V262.653H340.512V262.663ZM307.81 225.512H341.572C359.037 225.512 369.235 236.299 369.235 251.416C369.235 266.532 359.037 277.319 341.572 277.319H325.515V307.562H307.82V225.512H307.81Z" fill="#0F19A0"/>
<path d="M386.381 271.341H412.525C412.055 264.773 407.486 259.504 399.628 259.504C392.239 259.504 387.79 263.143 386.381 271.341ZM428.931 287.517C426.581 300.294 415.334 308.502 400.797 308.502C380.752 308.502 370.435 292.796 370.435 277.91C370.435 263.023 379.572 247.547 399.618 247.547C419.663 247.547 428.811 262.903 428.811 276.38C428.811 278.61 428.691 280.369 428.571 281.659H386.141C387.311 289.977 392.589 295.136 400.797 295.136C407.366 295.136 411.695 292.556 412.984 287.517H428.931Z" fill="#0F19A0"/>
<path d="M436.209 248.487H452.615V256.695C455.894 250.956 462.463 247.547 470.551 247.547C483.918 247.547 492.586 257.155 492.586 270.751V307.563H476.179V274.39C476.179 267.242 471.611 262.083 464.812 262.083C457.664 262.083 452.625 267.592 452.625 275.21V307.563H436.219V248.487H436.209Z" fill="#0F19A0"/>
<path d="M501.134 287.637H515.2C515.78 292.916 519.889 296.195 525.988 296.195C531.027 296.195 534.546 293.736 534.546 290.456C534.546 278.379 502.783 290.227 502.783 265.372C502.783 254.945 511.811 247.557 523.878 247.557C538.065 247.557 547.673 255.175 548.263 266.782H534.076C533.376 261.743 528.797 259.044 524.348 259.044C519.899 259.044 516.61 261.033 516.61 264.783C516.61 276.86 548.962 263.143 548.962 289.867C548.962 301.114 539.815 308.502 525.988 308.502C512.161 308.502 501.724 300.414 501.144 287.637" fill="#0F19A0"/>
<path d="M556.41 248.487H572.816V307.563H556.41V248.487ZM573.286 240.039H555.94V222.803H573.286V240.039Z" fill="#0F19A0"/>
<path d="M626.324 278.02C626.324 268.172 620.346 261.494 611.558 261.494C602.77 261.494 596.791 268.172 596.791 278.02C596.791 287.867 602.77 294.426 611.558 294.426C620.346 294.426 626.324 287.747 626.324 278.02ZM580.375 278.02C580.375 260.434 593.382 247.547 611.558 247.547C629.733 247.547 642.74 260.444 642.74 278.02C642.74 295.595 629.733 308.492 611.558 308.492C593.382 308.492 580.375 295.595 580.375 278.02Z" fill="#0F19A0"/>
<path d="M648.619 248.487H665.025V256.695C668.305 250.956 674.873 247.547 682.961 247.547C696.318 247.547 704.996 257.155 704.996 270.751V307.563H688.59V274.39C688.59 267.242 684.021 262.083 677.222 262.083C670.074 262.083 665.035 267.592 665.035 275.21V307.563H648.629V248.487H648.619Z" fill="#0F19A0"/>
<path d="M713.544 287.638H727.611C728.2 292.916 732.3 296.196 738.398 296.196C743.437 296.196 746.956 293.736 746.956 290.457C746.956 278.38 715.194 290.227 715.194 265.373C715.194 254.945 724.221 247.557 736.289 247.557C750.475 247.557 760.083 255.175 760.673 266.783H746.486C745.786 261.744 741.207 259.044 736.758 259.044C732.31 259.044 729.02 261.034 729.02 264.783C729.02 276.86 761.373 263.143 761.373 289.867C761.373 301.114 752.225 308.503 738.398 308.503C724.571 308.503 714.134 300.415 713.554 287.638" fill="#0F19A0"/>
<path d="M696.757 150.92C702.965 148.101 707.774 145.061 707.774 139.433C707.774 134.624 704.375 131.465 699.456 131.465C694.537 131.465 691.248 134.744 691.248 139.793C691.248 143.192 693.948 147.411 696.757 150.93M709.534 184.682L693.708 167.336C688.669 170.035 685.03 173.075 685.03 178.354C685.03 184.682 689.599 188.671 697.217 188.671C701.086 188.671 705.425 187.501 709.524 184.682M725.24 202.028L718.912 195.11C712.703 200.268 705.785 202.968 697.107 202.968C681.051 202.968 669.443 193.71 669.443 178.234C669.443 166.626 676.362 160.648 684.33 156.549C680.111 151.27 677.062 146.001 677.062 140.493C677.062 127.596 685.969 119.038 699.446 119.038C712.923 119.038 721.721 127.596 721.721 140.253C721.721 151.97 714.333 157.598 706.135 161.588L718.562 175.184L725.48 166.976C730.399 160.648 734.858 159.238 741.426 159.238V174.354C736.387 174.354 732.868 178.344 730.409 181.623L727.71 185.252L742.946 202.018H725.25L725.24 202.028Z" fill="#0F19A0"/>
<path d="M307.81 119.978H327.615L351.529 177.294L375.554 119.978H395.249V202.028H378.843V151.98L358.088 202.028H345.081L324.216 151.98V202.028H307.81V119.978Z" fill="#0F19A0"/>
<path d="M449.435 172.485C449.435 162.638 443.457 155.959 434.669 155.959C425.881 155.959 419.902 162.638 419.902 172.485C419.902 182.333 425.881 188.892 434.669 188.892C443.457 188.892 449.435 182.213 449.435 172.485ZM403.486 172.485C403.486 154.9 416.493 142.013 434.669 142.013C452.845 142.013 465.852 154.91 465.852 172.485C465.852 190.061 452.845 202.958 434.669 202.958C416.493 202.958 403.486 190.061 403.486 172.485Z" fill="#0F19A0"/>
<path d="M472.47 142.952H488.876V151.161C492.155 145.422 498.724 142.013 506.812 142.013C520.178 142.013 528.846 151.62 528.846 165.217V202.028H512.44V168.856C512.44 161.708 507.871 156.549 501.073 156.549C493.925 156.549 488.886 162.058 488.886 169.676V202.028H472.48V142.952H472.47Z" fill="#0F19A0"/>
<path d="M551.891 165.807H578.035C577.565 159.239 572.996 153.97 565.138 153.97C557.75 153.97 553.301 157.609 551.891 165.807ZM594.441 181.983C592.092 194.76 580.845 202.968 566.308 202.968C546.263 202.968 535.945 187.262 535.945 172.375C535.945 157.489 545.083 142.013 565.128 142.013C585.174 142.013 594.311 157.369 594.311 170.846C594.311 173.075 594.191 174.835 594.081 176.125H551.652C552.821 184.443 558.1 189.601 566.308 189.601C572.867 189.601 577.206 187.022 578.495 181.983H594.441Z" fill="#0F19A0"/>
<path d="M632.952 201.798L624.634 225.942H609.038L617.716 201.558L596.261 142.952H612.907L625.334 181.043L637.641 142.952H654.407L632.952 201.798Z" fill="#0F19A0"/>
</g>
<defs>
<clipPath id="clip0_635_2117">
<rect width="761.95" height="436.978" fill="white"/>
</clipPath>
</defs>
</svg>
